<?xml version="1.0" ?><svg viewBox="0 0 300 300" xmlns="http://www.w3.org/2000/svg"><defs><style>.a{fill:#2260e5;}.b,.f,.g{fill:none;}.b,.c,.e,.g{stroke:#121212;}.b,.c,.d,.e,.f,.g{stroke-linecap:round;stroke-linejoin:round;}.b,.c,.d,.e{stroke-width:3.5px;}.c{fill:#fff;}.d{fill:#ff3268;stroke:#ff3268;}.e{fill:#121212;}.f{stroke:#000;stroke-width:3px;}.g{stroke-width:2.889px;}</style></defs><title/><path class="a" d="M170.47,153.908c-2.916-6.682-8.358-14.32-14.583-18.114a25.562,25.562,0,0,0-10.882-3.422c-.286.989-1.069,4.013-2.109,8.138a21.229,21.229,0,0,1-3.566,2.39,1.411,1.411,0,0,1-.787.226c-.438-.052-.722-.472-.946-.851l-2.243-3.8h0a7.54,7.54,0,0,1-5.064.093h0q-1.093,1.854-2.188,3.706c-.223.379-.508.8-.945.85a1.4,1.4,0,0,1-.787-.225,21.315,21.315,0,0,1-3.646-2.454c-1.03-4.088-1.808-7.091-2.094-8.078a25.677,25.677,0,0,0-10.88,3.426c-.278.169-8.129,4.108-13.119,11.064-.657.916-1.255,1.752-1.806,2.55-5.046-8.255-7.065-13.684-11.32-19.251-3.683,1.624-14.164,8.306-14.188,9.087-.007.246,4.465,14.416,12.118,25.541l80.446-.473a6.8,6.8,0,0,1,.792-2.2,5.644,5.644,0,0,1,1.09-1.281c2.018-1.78,5.283-2.629,8.4-2.534C171.65,156.812,171.1,155.346,170.47,153.908Z"/><path class="b" d="M81.828,132.317c-.92-1.7.1-4.787-.021-6.714s-.664-4.071-2.335-5.038a4.31,4.31,0,0,0-1.643-.517,8.687,8.687,0,0,0-5.571,1.591,3.955,3.955,0,0,0-1.79,2.2,3.021,3.021,0,0,0,1.524,2.844,2.563,2.563,0,0,0,1.414.013,8.878,8.878,0,0,0,3.039-1.159"/><path class="b" d="M76,119.467c-1.551-3.365-3.125-6.713-4.874-9.98-.681-1.272-1.492-3.149-3.172-3.235a2.907,2.907,0,0,0-1.663.646c-1.486.973-2.181,1.881-1.74,3.674.221.9,3.084,6.1,4.157,8.059a.967.967,0,0,1-.21,1.183,31.224,31.224,0,0,1-4.656,3.716,4.891,4.891,0,0,0-1.966,3.7,7.49,7.49,0,0,0,1.5,4.731,17.532,17.532,0,0,0,3.588,3.541,35.918,35.918,0,0,0,4.652,3.165"/><path class="c" d="M157.86,154.857a95.573,95.573,0,0,1,2.159,9.466"/><path class="d" d="M134.931,146.916l2.707-4.291-.111-.468-2.166-3.669a7.508,7.508,0,0,1-2.393.471c-.019,0-.036,0-.054,0l-.021,0a7.488,7.488,0,0,1-.986-.046l-.023,0a7.69,7.69,0,0,1-1.594-.342h0q-1.093,1.854-2.188,3.706c-.066.113-.141.226-.22.336l-.026.112,2.5,4.216Z"/><polygon class="d" points="130.36 146.939 126.709 164.784 137.863 164.782 134.931 146.916 130.36 146.939"/><line class="d" x1="135.133" x2="130.562" y1="146.939" y2="146.916"/><path class="b" d="M111.488,137.953c2.183,2.341,5.812,5.872,7.4,8.015a18.385,18.385,0,0,0-3.587,3.078c-.278.324-.558.754-.392,1.147a1.171,1.171,0,0,0,.361.416"/><path class="b" d="M154.684,137.37c-2.07,2.3-6.209,6.268-7.932,8.6a18.385,18.385,0,0,1,3.587,3.078c.278.324.558.754.392,1.147a1.164,1.164,0,0,1-.362.416"/><path class="b" d="M95.139,149.776c1.262,1.426,4.627,6.569,5.693,7.872"/><path class="b" d="M131.093,147.923h2.754"/><path class="b" d="M151.293,123.173a3.723,3.723,0,0,0,.234,1.063c1,2.616,4.46,3.476,6.9,2.691,6.441-2.075,2.864-10.811-3.133-9.143A5.677,5.677,0,0,0,151.293,123.173Z"/><path class="b" d="M161.6,124.129a18.459,18.459,0,0,1,9.252,4.382,39.212,39.212,0,0,1,6.768,7.823,33.138,33.138,0,0,1,4.577,8.6,38.029,38.029,0,0,1,1.328,11.034c.056,3.508.053,5.307-.009,8.815"/><path class="b" d="M106.394,108.668a9.322,9.322,0,0,1-4.387,1.26,5.574,5.574,0,0,1-4.145-1.7,7.046,7.046,0,0,1-1.518-4.516,6.413,6.413,0,0,1,.313-2.511,5.383,5.383,0,0,1,3.4-3,11.849,11.849,0,0,1,3.859-.5"/><path class="b" d="M104.613,103.924l-2.3-.322"/><path class="b" d="M154.178,108.014a9.322,9.322,0,0,0,4.388,1.259,5.577,5.577,0,0,0,4.145-1.695,7.052,7.052,0,0,0,1.517-4.516,6.418,6.418,0,0,0-.313-2.512,5.388,5.388,0,0,0-3.4-3,11.876,11.876,0,0,0-3.859-.5"/><path class="b" d="M155.96,103.27l2.3-.322"/><path class="b" d="M156.561,87.682a21.561,21.561,0,0,1,.008,6.77l-2.91,16.328a21.855,21.855,0,0,1-12.813,16.368l-.175,1.366-.341,3.79a7.625,7.625,0,0,1-15.11.129c-.1-.688-.2-2.5-.3-3.189l-.074-.509a22.3,22.3,0,0,1-17.569-17.955l-2.745-15.146C101.968,57.834,154.04,69.528,156.561,87.682Z"/><path class="b" d="M116.942,96.818a12.859,12.859,0,0,0-.033,1.923"/><path class="b" d="M141.3,97.188a11.532,11.532,0,0,1-.148,2.016"/><path class="b" d="M129.289,96.752c-.029,1.856.159,3.775.016,5.62a2.263,2.263,0,0,1-.525-.058,4.541,4.541,0,0,0-3.644,1.068,3.279,3.279,0,0,0-.852,3.58,3.811,3.811,0,0,0,3.314,2.027,11.227,11.227,0,0,0,4-.736"/><path class="b" d="M137.72,120.53c-3.133,2.277-8.117,2.708-11.818,1.493a5.8,5.8,0,0,1-3.332-2.566,3.72,3.72,0,0,1,.219-4.051,4.553,4.553,0,0,1,3.269-1.434c1.222-.085,2.446.1,3.671.081a31.367,31.367,0,0,0,5.608-.894,4.112,4.112,0,0,1,3.181.282,3.606,3.606,0,0,1,1.234,2.3,4.514,4.514,0,0,1-.225,3A5.656,5.656,0,0,1,137.72,120.53Z"/><path class="e" d="M154.205,68.98c-22.555-20.532-42.917-4.077-47.4,0-9.877,8.991-2.623,28.723-2.623,28.723s.72-7.283,1.161-9.538a10.274,10.274,0,0,1,2.805-4.986,4.346,4.346,0,0,1,5.871-.612c8.7,6.79,21.333,9.081,32.966,0a4.347,4.347,0,0,1,5.872.612,10.274,10.274,0,0,1,2.805,4.986c.441,2.255.9,6.287.9,6.287S164.082,77.971,154.205,68.98Z"/><polyline class="b" points="188.318 191.054 188.318 184.383 78.24 184.383 78.24 189.996"/><polygon class="b" points="192.765 171.707 73.793 171.707 76.757 184.349 189.8 184.349 192.765 171.707"/><polyline class="b" points="161.601 171.707 73.793 171.707 76.757 164.782 161.783 164.782"/><polyline class="b" points="179.947 164.782 189.8 164.782 192.765 171.707 179.358 171.707"/><path class="f" d="M181.466,230.816c-2.184,1.713-3.2,2.823-5.655,3.333l-.047.324c-.064.438-.128,3.652-.191,4.091-.029.2,3.075,1.026,6.554,2.227"/><path class="g" d="M181.466,230.816c-2.184,1.713-3.2,2.823-5.655,3.333l-.047.324c-.064.438-.128,3.652-.191,4.091-.029.2,3.075,1.026,6.554,2.227"/><path class="f" d="M157.426,200.965a11.036,11.036,0,0,1,2.833-2.25,26.955,26.955,0,0,1,11.106-3.226,9.875,9.875,0,0,1,3.122.344,38.847,38.847,0,0,1,3.814,1.315,16.014,16.014,0,0,1,2.689,1.291"/><path class="g" d="M157.426,200.965a11.036,11.036,0,0,1,2.833-2.25,26.955,26.955,0,0,1,11.106-3.226,9.875,9.875,0,0,1,3.122.344,38.847,38.847,0,0,1,3.814,1.315,16.014,16.014,0,0,1,2.689,1.291"/><path class="f" d="M165.95,238.481l-.218-4.473-.111-.87c-.447-.2-1.067-.424-1.707-.664"/><path class="g" d="M165.95,238.481l-.218-4.473-.111-.87c-.447-.2-1.067-.424-1.707-.664"/><path class="f" d="M105.9,232.628a8.07,8.07,0,0,1-3.366,1.521l-.047.324c-.064.438-.127,3.652-.191,4.091a4.8,4.8,0,0,0,1.508.592"/><path class="g" d="M105.9,232.628a8.07,8.07,0,0,1-3.366,1.521l-.047.324c-.064.438-.127,3.652-.191,4.091a4.8,4.8,0,0,0,1.508.592"/><path class="f" d="M85.555,199.658a10.434,10.434,0,0,1,1.426-.943,26.955,26.955,0,0,1,11.106-3.226,9.875,9.875,0,0,1,3.122.344,38.956,38.956,0,0,1,3.815,1.315,15,15,0,0,1,5.067,3.088,12.708,12.708,0,0,1,1.789,2.1"/><path class="g" d="M85.555,199.658a10.434,10.434,0,0,1,1.426-.943,26.955,26.955,0,0,1,11.106-3.226,9.875,9.875,0,0,1,3.122.344,38.956,38.956,0,0,1,3.815,1.315,15,15,0,0,1,5.067,3.088,12.708,12.708,0,0,1,1.789,2.1"/><path class="f" d="M86.394,241.059c1.169-.458,2.307-.883,3.286-1.251a4.406,4.406,0,0,0,2.845-4.345l-.07-1.455-.112-.87c-1.078-.493-3.168-1.074-4.1-1.828a14.32,14.32,0,0,1-2.682-2.847"/><path class="g" d="M86.394,241.059c1.169-.458,2.307-.883,3.286-1.251a4.406,4.406,0,0,0,2.845-4.345l-.07-1.455-.112-.87c-1.078-.493-3.168-1.074-4.1-1.828a14.32,14.32,0,0,1-2.682-2.847"/><path class="f" d="M31.953,286.282c.344-9.656,1.928-19.649,4.093-25.112,2.372-5.984,5.993-11.554,11.057-14.952,3.969-2.663,13.774-5.555,13.709-6.067l-.234-4.8-.119-.934c-1.158-.529-3.4-1.153-4.407-1.962a15.376,15.376,0,0,1-5.482-9.23l-1.99-11.166a30.571,30.571,0,0,1,.006-4.629c-.1-3.737,1.914-6.831,5.007-9.065a6.037,6.037,0,0,1-.278-3.038,9.107,9.107,0,0,1,5.908-7.308c2.932-.9,6.639-.615,8.854,1.717a7.574,7.574,0,0,1,1.789,4.466c.018.172.01.345.019.518,8.018,1.159,15.059,6.648,14.279,18.148l-1.877,10.357a15.376,15.376,0,0,1-5.482,9.23c-1.911,1.539-3.032,2.555-5.405,3.048l-.051.348c-.068.471-.137,3.921-.2,4.392-.054.374,10.468,2.888,15.056,5.966,5.065,3.4,8.685,8.968,11.057,14.952"/><path class="g" d="M31.953,286.282c.344-9.656,1.928-19.649,4.093-25.112,2.372-5.984,5.993-11.554,11.057-14.952,3.969-2.663,13.774-5.555,13.709-6.067l-.234-4.8-.119-.934c-1.158-.529-3.4-1.153-4.407-1.962a15.376,15.376,0,0,1-5.482-9.23l-1.99-11.166a30.571,30.571,0,0,1,.006-4.629c-.1-3.737,1.914-6.831,5.007-9.065a6.037,6.037,0,0,1-.278-3.038,9.107,9.107,0,0,1,5.908-7.308c2.932-.9,6.639-.615,8.854,1.717a7.574,7.574,0,0,1,1.789,4.466c.018.172.01.345.019.518,8.018,1.159,15.059,6.648,14.279,18.148l-1.877,10.357a15.376,15.376,0,0,1-5.482,9.23c-1.911,1.539-3.032,2.555-5.405,3.048l-.051.348c-.068.471-.137,3.921-.2,4.392-.054.374,10.468,2.888,15.056,5.966,5.065,3.4,8.685,8.968,11.057,14.952"/><path class="f" d="M171.492,258.381a29.452,29.452,0,0,1,9.568-11.595c3.969-2.663,13.774-5.555,13.708-6.068l-.233-4.8-.12-.934c-1.158-.529-3.4-1.153-4.406-1.962a15.376,15.376,0,0,1-5.482-9.23l-1.991-11.166a30.7,30.7,0,0,1,.006-4.629c-.1-4.012,2.649-8.08,6.116-9.973a28.913,28.913,0,0,1,11.925-3.464,10.588,10.588,0,0,1,3.352.369,41.763,41.763,0,0,1,4.095,1.412,16.082,16.082,0,0,1,5.441,3.315c3.771,3.554,4.99,8.748,4.649,13.779l-1.877,10.357a15.371,15.371,0,0,1-5.482,9.23c-1.91,1.539-3.031,2.555-5.4,3.047l-.051.348c-.069.471-.137,3.922-.205,4.393-.055.374,10.468,2.888,15.056,5.966,5.064,3.4,8.684,8.968,11.056,14.951,2.016,5.085,3.352,17.4,3.885,25.126"/><path class="f" d="M96.29,290c.568-8.24,1.994-17.7,4.145-23.13a43.97,43.97,0,0,1,3.621-7.223,16.171,16.171,0,0,1,2.372-3.237c.778-.727,1.547-.762,1.44-2.16a10.968,10.968,0,0,0-.607-2.217,8.1,8.1,0,0,1,2.059-7.93c-1.153-.137-1.5-1.632-1.495-2.793a8.277,8.277,0,0,1,.584-3.4,3.5,3.5,0,0,1,2.579-2.1,12.421,12.421,0,0,1-1.518-6.16,6.846,6.846,0,0,1,2.935-5.434,6.1,6.1,0,0,1-.233-4.773A37.3,37.3,0,0,1,114,215.887a4.772,4.772,0,0,0,.341-2.367,21.467,21.467,0,0,1,.442-4.494c1.958-9.3,10.8-13.671,19.661-13.27,8.861-.4,17.7,3.97,19.662,13.27a21.467,21.467,0,0,1,.442,4.494,4.772,4.772,0,0,0,.341,2.367,37.54,37.54,0,0,1,1.83,3.554,6.1,6.1,0,0,1-.234,4.773,6.846,6.846,0,0,1,2.935,5.434,12.421,12.421,0,0,1-1.518,6.16,3.5,3.5,0,0,1,2.579,2.1,8.277,8.277,0,0,1,.584,3.4c.009,1.161-.342,2.656-1.5,2.793a8.1,8.1,0,0,1,2.06,7.93,10.9,10.9,0,0,0-.606,2.217c-.108,1.4.661,1.433,1.439,2.16a16.171,16.171,0,0,1,2.372,3.237,43.97,43.97,0,0,1,3.621,7.223c2.151,5.425,3.577,14.89,4.145,23.13"/><path class="g" d="M96.29,290c.568-8.24,1.994-17.7,4.145-23.13a43.97,43.97,0,0,1,3.621-7.223,16.171,16.171,0,0,1,2.372-3.237c.778-.727,1.547-.762,1.44-2.16a10.968,10.968,0,0,0-.607-2.217,8.1,8.1,0,0,1,2.059-7.93c-1.153-.137-1.5-1.632-1.495-2.793a8.277,8.277,0,0,1,.584-3.4,3.5,3.5,0,0,1,2.579-2.1,12.421,12.421,0,0,1-1.518-6.16,6.846,6.846,0,0,1,2.935-5.434,6.1,6.1,0,0,1-.233-4.773A37.3,37.3,0,0,1,114,215.887a4.772,4.772,0,0,0,.341-2.367,21.467,21.467,0,0,1,.442-4.494c1.958-9.3,10.8-13.671,19.661-13.27,8.861-.4,17.7,3.97,19.662,13.27a21.467,21.467,0,0,1,.442,4.494,4.772,4.772,0,0,0,.341,2.367,37.54,37.54,0,0,1,1.83,3.554,6.1,6.1,0,0,1-.234,4.773,6.846,6.846,0,0,1,2.935,5.434,12.421,12.421,0,0,1-1.518,6.16,3.5,3.5,0,0,1,2.579,2.1,8.277,8.277,0,0,1,.584,3.4c.009,1.161-.342,2.656-1.5,2.793a8.1,8.1,0,0,1,2.06,7.93,10.9,10.9,0,0,0-.606,2.217c-.108,1.4.661,1.433,1.439,2.16a16.171,16.171,0,0,1,2.372,3.237,43.97,43.97,0,0,1,3.621,7.223c2.151,5.425,3.577,14.89,4.145,23.13"/><path class="c" d="M185.809,90.072a13.216,13.216,0,0,0,8.227-8.921"/><path class="b" d="M253.559,75.241c-.811.056-1.629.057-2.44.056q-27.692-.025-55.382-.027c-3.15,0-6.683.273-9.635-1.2-3.695-1.84-4.537-5.718-5.568-9.751a82.964,82.964,0,0,1-2.044-29.251c.629-5.867.933-14.12,4.859-18.562,3.3-3.737,8.573-3.567,13-4.232q8.4-1.26,16.876-1.819a200.748,200.748,0,0,1,26.632-.031c4.363.291,8.689.828,13.022,1.391,3.506.456,7.315.422,10.09,3.275,1.734,1.783,2.639,4.348,3.306,6.877a52.67,52.67,0,0,1,.889,23.148c-1.395,7.775-3.147,16.317-5.9,23.627-.96,2.549-2,4.814-4.477,5.818A10.468,10.468,0,0,1,253.559,75.241Z"/><path class="b" d="M191.341,52.305l4.63-.644"/><path class="b" d="M208.293,38.206l-1.2,14.559"/><path class="b" d="M214.518,38.868l-.257,13.805"/><path class="b" d="M203.962,43.1l14.986.091"/><path class="b" d="M203.546,48.9a130.607,130.607,0,0,0,15.375-.3"/><path class="b" d="M234.011,43.939a3.061,3.061,0,0,0-1.344-.314,2.144,2.144,0,0,0-1.559.368,2.388,2.388,0,0,0-.592,1.135,4.2,4.2,0,0,0-.241,1.177,1.411,1.411,0,0,0,.428,1.087,2.088,2.088,0,0,0,.786.363,2.529,2.529,0,0,0,1.881.065,2.172,2.172,0,0,0,.731-.73C234.723,46.191,235.214,44.616,234.011,43.939Z"/><path class="b" d="M235.715,51.081a4.132,4.132,0,0,1-2.629.748,6.743,6.743,0,0,1-6.527-5.625,5.985,5.985,0,0,1,2.2-5.768,8.4,8.4,0,0,1,4.708-1.291,5.79,5.79,0,0,1,1.782.155,4.76,4.76,0,0,1,2.052,1.347,5.722,5.722,0,0,1,1.687,3.443,3.575,3.575,0,0,1-1.61,3.343,1.852,1.852,0,0,1-1.406.248,4.176,4.176,0,0,1-1.373-.77"/><path class="b" d="M252.015,35.865q-.165,5.443,0,10.891"/><path class="b" d="M249.733,52.145a1.946,1.946,0,0,0-.181.659,2.49,2.49,0,0,0,.618,2.185,3.084,3.084,0,0,0,1.807.6,1.831,1.831,0,0,0,.756-.038A1.427,1.427,0,0,0,253.4,55a2.8,2.8,0,0,0,.523-1.706C253.866,51.29,250.729,50.235,249.733,52.145Z"/><path class="b" d="M179.157,161a5.568,5.568,0,0,0-2.018-1.6c-3.906-1.885-10.193-1.384-13.376,1.423a5.644,5.644,0,0,0-1.09,1.281,7.648,7.648,0,0,0-.89,2.7,27.566,27.566,0,0,0-.417,4.266,6.8,6.8,0,0,0,.731,3.718,2.477,2.477,0,0,0,2.442,1.272,2.351,2.351,0,0,0,1.093-.231,1.929,1.929,0,0,0,.632-.595,5.833,5.833,0,0,0,.889-2.559,24.742,24.742,0,0,0,.279-2.767l.14.277c-.015.295-.026.59-.031.885a6.809,6.809,0,0,0,.73,3.718,2.479,2.479,0,0,0,2.443,1.272,2.347,2.347,0,0,0,1.092-.231,1.923,1.923,0,0,0,.633-.595,5.832,5.832,0,0,0,.888-2.559,24.511,24.511,0,0,0,.28-2.767l.168.277q-.023.442-.031.885a6.809,6.809,0,0,0,.73,3.718,2.479,2.479,0,0,0,2.443,1.272,2.347,2.347,0,0,0,1.092-.231,1.923,1.923,0,0,0,.633-.595c.922-1.285,1.033-3.068,1.172-4.536a28.3,28.3,0,0,0,.133-3.28,9.7,9.7,0,0,0-.312-3.6A3.783,3.783,0,0,0,179.157,161Z"/></svg>